{"asset":{"version":"2.0","generator":"THREE.GLTFExporter"},"scenes":[{"nodes":[0],"name":"AuxScene"}],"scene":0,"nodes":[{"mesh":0}],"bufferViews":[{"buffer":0,"byteOffset":0,"byteLength":2340,"target":34962,"byteStride":12},{"buffer":0,"byteOffset":2340,"byteLength":2340,"target":34962,"byteStride":12}],"buffers":[{"byteLength":4680,"uri":"data:application/octet-stream;base64,"}],"accessors":[{"bufferView":0,"componentType":5126,"count":195,"max":[49.30000305175781,0.30000001192092896,49.205684661865234],"min":[-49.400001525878906,0.10000000149011612,-49.494319915771484],"type":"VEC3"},{"bufferView":1,"componentType":5126,"count":195,"max":[0.04534762352705002,1,0.0038094965275377035],"min":[-0.05031007155776024,0.8706805109977722,-0.4897540509700775],"type":"VEC3"}],"materials":[{"pbrMetallicRoughness":{"baseColorFactor":[0.5019607843137255,0.5019607843137255,0.5019607843137255,1],"metallicFactor":0,"roughnessFactor":1}}],"meshes":[{"primitives":[{"mode":4,"attributes":{"POSITION":0,"NORMAL":1},"material":0}]}]}